<svg xmlns="http://www.w3.org/2000/svg" xmlns:xlink="http://www.w3.org/1999/xlink" width="100%" height="100%" version="1.1" viewBox="0 0 512 512" xml:space="preserve" style="fill-rule:evenodd;clip-rule:evenodd;stroke-linejoin:round;stroke-miterlimit:2"><path d="M432,240l-240.5,0c-8.8,0 -16,7.2 -16,16c0,8.8 7.2,16 16,16l240.5,0c8.8,0 16,-7.2 16,-16c0,-8.8 -7.2,-16 -16,-16Zm0,124l-240.5,0c-8.8,0 -16,7.2 -16,16c0,8.8 7.2,16 16,16l240.5,0c8.8,0 16,-7.2 16,-16c0,-8.8 -7.2,-16 -16,-16Zm-240.5,-216l240.5,0c8.8,0 16,-7.2 16,-16c0,-8.8 -7.2,-16 -16,-16l-240.5,0c-8.8,0 -16,7.2 -16,16c0,8.8 7.2,16 16,16Z" style="fill-rule:nonzero"/><text x="54" y="175.641" style="font-family:'Helvetica-Bold','Helvetica';font-weight:700;font-size:144px">1</text><text x="54" y="300.641" style="font-family:'Helvetica-Bold','Helvetica';font-weight:700;font-size:144px">2</text><text x="54" y="435.641" style="font-family:'Helvetica-Bold','Helvetica';font-weight:700;font-size:144px">3</text></svg>