<svg xmlns="http://www.w3.org/2000/svg" xmlns:xlink="http://www.w3.org/1999/xlink" width="100%" height="100%" version="1.1" viewBox="0 0 512 512" xml:space="preserve" style="fill-rule:evenodd;clip-rule:evenodd;stroke-linecap:round;stroke-linejoin:round"><g><path d="M96,185L256,185" transform="matrix(0.504975,0.874643,-0.866025,0.5,205.029,-61.7773)" style="fill:none;fill-rule:nonzero;stroke:currentColor;stroke-width:25.3px"/></g><g><path d="M96,185L256,185" transform="matrix(0.505075,-0.874815,0.866025,0.5,-115.41,388.171)" style="fill:none;fill-rule:nonzero;stroke:currentColor;stroke-width:25.3px"/></g><g><path d="M96,112L416,112" transform="matrix(0.82688,0,0,1,16.6195,0)" style="fill:none;fill-rule:nonzero;stroke:currentColor;stroke-width:34.88px"/></g><g><path d="M96,112L416,112" transform="matrix(0.0749203,0.0581561,-0.613184,0.78994,423.049,17.7022)" style="fill:none;fill-rule:nonzero;stroke:currentColor;stroke-width:44.51px"/></g><g><path d="M96,112L416,112" transform="matrix(0.0749406,-0.0581299,0.612907,0.790155,285.725,315.842)" style="fill:none;fill-rule:nonzero;stroke:currentColor;stroke-width:44.51px"/></g><g><path d="M96,400L416,400" transform="matrix(0.826875,0,0,1,16.62,0)" style="fill:none;fill-rule:nonzero;stroke:currentColor;stroke-width:32px"/></g></svg>